# 3ds Max Wavefront OBJ Exporter v0.97b - (c)2007 guruware
# File Created: 14.06.2019 21:35:06

mtllib krysztalek.mtl

#
# object Box001
#

v  -2.8490 0.0000 3.1255
v  -2.8490 0.0000 -2.8792
v  3.1556 0.0000 -2.8792
v  3.1556 0.0000 3.1255
v  -2.8490 20.0000 3.1255
v  3.1556 20.0000 3.1255
v  3.1556 20.0000 -2.8792
v  -2.8490 20.0000 -2.8792
v  -2.8490 6.9977 10.1232
v  3.1556 6.9977 10.1232
v  3.1556 13.0023 10.1232
v  -2.8490 13.0023 10.1232
v  10.1533 6.9977 3.1255
v  10.1533 6.9977 -2.8792
v  10.1533 13.0023 -2.8792
v  10.1533 13.0023 3.1255
v  3.1556 6.9977 -9.8768
v  -2.8490 6.9977 -9.8768
v  -2.8490 13.0023 -9.8768
v  3.1556 13.0023 -9.8768
v  -9.8467 6.9977 -2.8792
v  -9.8467 6.9977 3.1255
v  -9.8467 13.0023 3.1255
v  -9.8467 13.0023 -2.8792
# 24 vertices

vn 0.0000 -1.0000 -0.0000
vn 0.0000 1.0000 -0.0000
vn 0.0000 0.0000 1.0000
vn 1.0000 0.0000 -0.0000
vn 0.0000 0.0000 -1.0000
vn -1.0000 0.0000 -0.0000
vn -0.5774 -0.5774 0.5774
vn 0.5774 -0.5774 0.5774
vn -0.5774 -0.5774 -0.5774
vn 0.5774 -0.5774 -0.5774
vn -0.5774 0.5774 0.5774
vn 0.5774 0.5774 0.5774
vn -0.5774 0.5774 -0.5774
vn 0.5774 0.5774 -0.5774
vn -0.7071 -0.7071 -0.0000
vn 0.0000 -0.7071 -0.7071
vn 0.7071 -0.7071 -0.0000
vn 0.0000 -0.7071 0.7071
vn 0.0000 0.7071 0.7071
vn 0.7071 0.7071 -0.0000
vn 0.0000 0.7071 -0.7071
vn -0.7071 0.7071 -0.0000
vn 0.7071 0.0000 0.7071
vn -0.7071 0.0000 0.7071
vn 0.7071 0.0000 -0.7071
vn -0.7071 0.0000 -0.7071
# 26 vertex normals

vt 0.4217 0.2256 0.0000
vt 0.3451 0.3049 0.0000
vt 0.2658 0.2283 0.0000
vt 0.3424 0.1489 0.0000
vt 0.8089 0.2986 0.0000
vt 0.8089 0.2034 0.0000
vt 0.9042 0.2034 0.0000
vt 0.9042 0.2986 0.0000
vt 0.1653 0.5959 0.0000
vt 0.2734 0.5959 0.0000
vt 0.2734 0.7041 0.0000
vt 0.1653 0.7041 0.0000
vt 0.7005 0.7291 0.0000
vt 0.7005 0.8344 0.0000
vt 0.5951 0.8344 0.0000
vt 0.5951 0.7291 0.0000
vt 0.7005 0.4418 0.0000
vt 0.7005 0.5471 0.0000
vt 0.5951 0.5471 0.0000
vt 0.5951 0.4418 0.0000
vt 0.1054 0.7568 0.0000
vt 0.1739 0.8230 0.0000
vt 0.1077 0.8915 0.0000
vt 0.0392 0.8254 0.0000
vt 0.1988 0.5777 0.0000
vt 0.0419 0.5777 0.0000
vt 0.1203 0.4418 0.0000
vt 0.0392 0.1177 0.0000
vt 0.1751 0.0392 0.0000
vt 0.1751 0.1962 0.0000
vt 0.3484 0.9008 0.0000
vt 0.2354 0.7918 0.0000
vt 0.3863 0.7485 0.0000
vt 0.0392 0.3000 0.0000
vt 0.1751 0.2215 0.0000
vt 0.1751 0.3785 0.0000
vt 0.3831 0.4418 0.0000
vt 0.3046 0.5777 0.0000
vt 0.2261 0.4418 0.0000
vt 0.5799 0.9478 0.0000
vt 0.4439 0.8694 0.0000
vt 0.5799 0.7909 0.0000
vt 0.3322 0.9175 0.0000
vt 0.1813 0.9608 0.0000
vt 0.2193 0.8085 0.0000
vt 0.5799 0.6605 0.0000
vt 0.4439 0.5820 0.0000
vt 0.5799 0.5036 0.0000
vt 0.5142 0.3148 0.0000
vt 0.4376 0.3942 0.0000
vt 0.2558 0.3974 0.0000
vt 0.1765 0.3207 0.0000
vt 0.1733 0.1390 0.0000
vt 0.2499 0.0597 0.0000
vt 0.4317 0.0565 0.0000
vt 0.5110 0.1331 0.0000
vt 0.6719 0.0392 0.0000
vt 0.6719 0.1712 0.0000
vt 0.5586 0.1712 0.0000
vt 0.5586 0.0392 0.0000
vt 0.7925 0.0392 0.0000
vt 0.7925 0.1712 0.0000
vt 0.6793 0.1712 0.0000
vt 0.6793 0.0392 0.0000
vt 0.7925 0.1766 0.0000
vt 0.7925 0.3086 0.0000
vt 0.6793 0.3086 0.0000
vt 0.6793 0.1766 0.0000
vt 0.6719 0.1766 0.0000
vt 0.6719 0.3086 0.0000
vt 0.5586 0.3086 0.0000
vt 0.5586 0.1766 0.0000
vt 0.3995 0.5959 0.0000
vt 0.3995 0.7041 0.0000
vt 0.0392 0.7041 0.0000
vt 0.0392 0.5959 0.0000
vt 0.7005 0.9572 0.0000
vt 0.5951 0.9572 0.0000
vt 0.7005 0.6699 0.0000
vt 0.5951 0.6699 0.0000
# 80 texture coords

g Box001
usemtl wire_196088225
s 1
f 1/1/1 2/2/1 3/3/1 4/4/1 
f 5/5/2 6/6/2 7/7/2 8/8/2 
f 9/9/3 10/10/3 11/11/3 12/12/3 
f 13/13/4 14/14/4 15/15/4 16/16/4 
f 17/17/5 18/18/5 19/19/5 20/20/5 
f 21/21/6 22/22/6 23/23/6 24/24/6 
s 2
f 9/25/7 22/26/7 1/27/7 
f 4/28/8 13/29/8 10/30/8 
f 21/31/9 18/32/9 2/33/9 
f 3/34/10 17/35/10 14/36/10 
f 12/37/11 5/38/11 23/39/11 
f 16/40/12 6/41/12 11/42/12 
f 24/43/13 8/44/13 19/45/13 
f 20/46/14 7/47/14 15/48/14 
s 4
f 1/1/15 22/49/15 21/50/15 2/2/15 
s 8
f 2/2/16 18/51/16 17/52/16 3/3/16 
s 4
f 3/3/17 14/53/17 13/54/17 4/4/17 
s 8
f 4/4/18 10/55/18 9/56/18 1/1/18 
s 4
f 5/57/19 12/58/19 11/59/19 6/60/19 
s 8
f 6/61/20 16/62/20 15/63/20 7/64/20 
s 4
f 7/65/21 20/66/21 19/67/21 8/68/21 
s 8
f 8/69/22 24/70/22 23/71/22 5/72/22 
s 16
f 10/10/23 13/73/23 16/74/23 11/11/23 
f 12/12/24 23/75/24 22/76/24 9/9/24 
f 14/14/25 17/77/25 20/78/25 15/15/25 
f 18/18/26 21/79/26 24/80/26 19/19/26 
# 18 polygons - 8 triangles

